<svg width="826" height="352" viewBox="0 0 826 352" fill="none" xmlns="http://www.w3.org/2000/svg">
<g clip-path="url(#clip0_1_111)">
<rect width="109.663" height="140.369" transform="translate(30.5278 134.49)" fill="#274DD5"/>
<path d="M139.094 327.958L140.191 134.49C140.191 134.49 303.936 101.375 315.652 134.49C327.367 167.605 314.92 313.698 192.281 327.958H139.094Z" fill="#FF5F62"/>
<circle cx="84.811" cy="273.214" r="54.2832" fill="#00CB8F"/>
<g clip-path="url(#clip1_1_111)">
<path d="M30.5278 63.2091C30.5278 39.5887 49.676 20.4405 73.2964 20.4405H140.191V134.49H30.5278V63.2091Z" fill="#00D9EF"/>
</g>
<path d="M140.19 134.49V20.4405H190.635C243.801 23.8049 297.774 62.9391 315.651 134.49H140.19Z" fill="#0BBAE1"/>
<path d="M366.245 179V61.5148H406.786C425.87 61.5148 440.542 66.6444 450.801 76.9037C461.06 87.0526 466.19 101.559 466.19 120.423C466.19 139.176 461.116 153.628 450.967 163.777C440.928 173.926 426.532 179 407.778 179H366.245ZM391.397 157.82H406.786C418.148 157.82 426.532 154.786 431.937 148.719C437.453 142.541 440.211 133.054 440.211 120.257C440.211 107.461 437.453 98.0289 431.937 91.9616C426.532 85.784 418.148 82.6952 406.786 82.6952H391.397V157.82ZM474.811 179V90.3069H499.632V179H474.811ZM474.315 79.3857V59.5291H499.963V79.3857H474.315ZM366.245 328V210.515H399.836L429.786 296.064L459.571 210.515H493.162V328H468.01V251.883L440.376 327.669H418.865L391.397 251.883V328H366.245ZM548.31 329.986C539.264 329.986 531.376 328.11 524.647 324.36C517.918 320.499 512.678 315.093 508.927 308.143C505.177 301.194 503.301 293.03 503.301 283.653C503.301 274.277 505.177 266.169 508.927 259.329C512.678 252.379 517.918 246.974 524.647 243.113C531.376 239.252 539.264 237.321 548.31 237.321C557.355 237.321 565.243 239.252 571.972 243.113C578.701 246.974 583.941 252.379 587.692 259.329C591.443 266.169 593.318 274.277 593.318 283.653C593.318 293.03 591.443 301.194 587.692 308.143C583.941 315.093 578.701 320.499 571.972 324.36C565.243 328.11 557.355 329.986 548.31 329.986ZM548.31 310.956C554.487 310.956 559.286 308.585 562.706 303.841C566.125 298.987 567.835 292.258 567.835 283.653C567.835 275.049 566.125 268.375 562.706 263.631C559.286 258.777 554.487 256.351 548.31 256.351C542.132 256.351 537.333 258.777 533.914 263.631C530.494 268.375 528.784 275.049 528.784 283.653C528.784 292.258 530.494 298.987 533.914 303.841C537.333 308.585 542.132 310.956 548.31 310.956ZM602.154 328V239.307H624.493L625.486 265.286L622.342 264.459C623.224 257.84 624.989 252.545 627.637 248.573C630.395 244.602 633.814 241.734 637.896 239.969C641.978 238.204 646.445 237.321 651.299 237.321C657.697 237.321 663.103 238.7 667.515 241.458C672.038 244.216 675.458 248.132 677.775 253.207C680.202 258.171 681.415 264.073 681.415 270.912V328H656.594V279.186C656.594 274.442 656.208 270.416 655.436 267.106C654.664 263.797 653.285 261.315 651.299 259.66C649.314 257.895 646.556 257.012 643.026 257.012C637.841 257.012 633.869 258.943 631.112 262.804C628.354 266.555 626.975 272.015 626.975 279.186V328H602.154ZM695.239 328V210.515H720.059V275.711L752.988 239.307H782.773L748.355 275.876L783.766 328H756.629L732.304 289.941L720.059 303.014V328H695.239Z" fill="black"/>
</g>
<defs>
<clipPath id="clip0_1_111">
<rect width="826" height="352" fill="white"/>
</clipPath>
<clipPath id="clip1_1_111">
<path d="M30.5278 63.2091C30.5278 39.5887 49.676 20.4405 73.2964 20.4405H140.191V134.49H30.5278V63.2091Z" fill="white"/>
</clipPath>
</defs>
</svg>
